<?xml version="1.0" encoding="UTF-8"?>
<svg width="27px" height="34px" viewBox="0 0 27 34" version="1.1" xmlns="http://www.w3.org/2000/svg" xmlns:xlink="http://www.w3.org/1999/xlink">
    <!-- Generator: Sketch 51.1 (57501) - http://www.bohemiancoding.com/sketch -->
    <title>Jardin</title>
    <desc>Created with Sketch.</desc>
    <defs></defs>
    <g id="Page-1" stroke="none" stroke-width="1" fill="none" fill-rule="evenodd">
        <g id="Nouveau-Jardin" transform="translate(-134.000000, -622.000000)" stroke="#0F4944">
            <g id="Jardin" transform="translate(134.333333, 623.000000)">
                <path d="M1,18.3555444 L1,22.4578449 L13.2582521,31.0518763 L25.5165043,22.4578449 L25.5165043,18.3555444 L1,18.3555444 Z" id="Rectangle-20" stroke-width="2" fill="#0F4944"></path>
                <path d="M13.2582521,9.27005646 L1.74198907,17.3438932 L13.2582521,25.41773 L24.7745152,17.3438932 L13.2582521,9.27005646 Z" id="Rectangle-20" stroke-width="2" fill="#4BB16C"></path>
                <path d="M12.717612,20.5031665 C11.4229394,16.611983 10.1837354,14.9002483 9,15.3679622" id="Path-11"></path>
                <path d="M13.5,19.6905034 C13.5243818,12.4357046 14.6665158,10.3630452 16.9264021,13.472525" id="Path-12"></path>
                <path d="M12.4232236,18.506876 C11.8865005,8.5571575 11.2536136,3.04428366 10.5245628,1.96825447 C9.43098672,0.354210683 8.61014823,4.5280064 9.19336694,7.75662231 C9.58217941,9.90903291 10.6587983,13.4924508 12.4232236,18.506876 Z" id="Path-13" fill="#0F4944"></path>
                <path d="M14.25,18.4102713 C16.0745891,13.6225473 17.7369277,11.5476927 19.2370159,12.1857073 L14.25,18.4102713 Z" id="Path-11"></path>
                <path d="M13.5,18.5273914 C14.6046518,6.15571397 15.6121274,1.28862085 20.036229,0.500399173 C21.5793071,0.22547609 18.9789952,1.28862085 18.0954159,5.28404602 C17.5063631,7.94766279 15.9745578,12.3621113 13.5,18.5273914 Z" id="Path-13" fill="#0F4944"></path>
            </g>
        </g>
    </g>
</svg>