<?xml version="1.0" encoding="UTF-8"?>
<svg width="34px" height="31px" viewBox="0 0 34 31" version="1.1" xmlns="http://www.w3.org/2000/svg" xmlns:xlink="http://www.w3.org/1999/xlink">
    <!-- Generator: Sketch 51.1 (57501) - http://www.bohemiancoding.com/sketch -->
    <title>Home</title>
    <desc>Created with Sketch.</desc>
    <defs></defs>
    <g id="Page-1" stroke="none" stroke-width="1" fill="none" fill-rule="evenodd">
        <g id="Nouveau-Jardin" transform="translate(-40.000000, -624.000000)">
            <g id="Home" transform="translate(40.000000, 624.000000)">
                <path d="M5,17 L5,24.4067567 L17.2582521,29.8243008 L29.5165043,24.4067567 L29.5165043,17 L5,17 Z" id="Rectangle-20" stroke="#0F4944" stroke-width="2" fill="#0F4944"></path>
                <path d="M5,3.979512 L5,8.0818125 L17.2582521,16.6758439 L29.5165043,8.0818125 L29.5165043,3.979512 L5,3.979512 Z" id="Rectangle-20" stroke="#0F4944" stroke-width="2" fill="#0F4944" transform="translate(17.258252, 10.438316) scale(1, -1) translate(-17.258252, -10.438316) "></path>
                <polygon id="Rectangle-20" fill="#FFFFFF" points="16.8241724 1.5 33.6483447 13.2951127 16.8241724 19.6790549 0 13.2951127"></polygon>
                <path d="M16.8241724,1.22127597 L2.12011073,11.5300187 L16.8241724,17.1094836 L31.528234,11.5300187 L16.8241724,1.22127597 Z" id="Rectangle-20" stroke="#0F4944" stroke-width="2" fill="#4BB16C"></path>
                <polygon id="Path-14" stroke="#0F4944" stroke-width="1.5" fill="#0F4944" points="16.8143375 1.8650329 16.8143375 16.547121 2.4847422 11.3306584"></polygon>
                <polygon id="Path-2" fill="#4BB16C" points="8 25.1342493 12.2567061 26.9380061 12.2567061 20.3966412 8 18.5"></polygon>
            </g>
        </g>
    </g>
</svg>